<?xml version="1.0" encoding="utf-8"?>
<!-- Generator: Adobe Illustrator 27.8.1, SVG Export Plug-In . SVG Version: 6.00 Build 0)  -->
<svg version="1.1" id="Слой_1" xmlns="http://www.w3.org/2000/svg" xmlns:xlink="http://www.w3.org/1999/xlink" x="0px" y="0px"
	 viewBox="0 0 25 25" style="enable-background:new 0 0 25 25;" xml:space="preserve">
<path d="M16.4,0.7h-4.5c-2.1,0-3.7,0-5,0.2C5.6,1,4.5,1.4,3.7,2.2C2.8,3.1,2.5,4.2,2.3,5.5c-0.2,1.3-0.2,2.9-0.2,5v6.8
	c0,1.8,1.1,3.3,2.6,3.9c-0.1-1.1-0.1-2.6-0.1-3.8v-5.7v-0.1c0-1.5,0-2.8,0.1-3.8c0.1-1.1,0.5-2.2,1.3-3C7,3.8,8,3.5,9.1,3.4
	c1-0.1,2.3-0.1,3.8-0.1l0.1,0h3.4l0.1,0c1.5,0,2.8,0,3.8,0.1C19.7,1.8,18.2,0.7,16.4,0.7z"/>
<path d="M6.3,11.7c0-3.2,0-4.8,1-5.7c1-1,2.6-1,5.8-1h3.4c3.2,0,4.8,0,5.8,1c1,1,1,2.6,1,5.7v5.6c0,3.2,0,4.8-1,5.7
	c-1,1-2.6,1-5.8,1H13c-3.2,0-4.8,0-5.8-1c-1-1-1-2.6-1-5.7V11.7z"/>
</svg>
