<?xml version="1.0" encoding="utf-8"?>
<!-- Generator: Adobe Illustrator 27.8.1, SVG Export Plug-In . SVG Version: 6.00 Build 0)  -->
<svg version="1.1" id="Capa_1" xmlns="http://www.w3.org/2000/svg" xmlns:xlink="http://www.w3.org/1999/xlink" x="0px" y="0px"
	 viewBox="0 0 800 800" style="enable-background:new 0 0 800 800;" xml:space="preserve">
<style type="text/css">
	.st0{fill:#020010;}
</style>
<path class="st0" d="M400,0C179.4,0,0,179.4,0,400s179.4,400,400,400c220.6,0,400-179.4,400-400S620.6,0,400,0z M400,747.5
	C208.4,747.5,52.5,591.6,52.5,400S208.4,52.5,400,52.5c191.6,0,347.5,155.9,347.5,347.5C747.5,591.6,591.6,747.5,400,747.5z"/>
<path d="M-347.5,306.1l-224.7,224.7c0,0,0,0,0,0.1c-5.1,5.1-11.8,7.7-18.6,7.7c-6.7,0-13.4-2.6-18.5-7.7L-711.3,429
	c-10.2-10.2-10.2-26.8,0-37.1s26.8-10.2,37.1,0l83.4,83.4L-384.6,269c10.2-10.2,26.8-10.2,37.1,0
	C-337.2,279.3-337.2,295.9-347.5,306.1z"/>
<path class="st0" d="M400,33.7C198,33.7,33.7,198,33.7,400S198,766.3,400,766.3c202,0,366.3-164.3,366.3-366.3S601.9,33.7,400,33.7z
	 M400,718.2C224.5,718.2,81.8,575.5,81.8,400S224.5,81.8,400,81.8c175.5,0,318.2,142.8,318.2,318.2S575.5,718.2,400,718.2z"/>
<path d="M1424.6,368.4l-206.3,206.3l-83.4-83.4c-10.2-10.2-26.8-10.2-37.1,0c-10.2,10.2-10.2,26.9,0,37.1l101.9,101.9
	c5.1,5.1,11.8,7.7,18.5,7.7s13.4-2.6,18.6-7.7c0,0,0,0,0.1-0.1l224.7-224.7c10.2-10.2,10.2-26.9,0-37.1
	C1451.4,358.2,1434.8,358.2,1424.6,368.4z"/>
<g>
	<path class="st0" d="M370.4,535L370.4,535c-15.3,14.5-39.4,13.8-53.9-1.5l-79.6-84.2c-14.5-15.3-13.8-39.4,1.5-53.9l0,0
		c15.3-14.5,39.4-13.8,53.9,1.5l79.6,84.2C386.4,496.4,385.7,520.6,370.4,535z"/>
	<path class="st0" d="M318.9,535.6L318.9,535.6c-15.7-14-17.1-38.1-3.1-53.8l191.1-214.5c14-15.7,38.1-17.1,53.8-3.1l0,0
		c15.7,14,17.1,38.1,3.1,53.8L372.7,532.5C358.7,548.3,334.6,549.6,318.9,535.6z"/>
</g>
</svg>
